<svg width="135" height="1024" viewBox="0 0 135 1024" fill="none" xmlns="http://www.w3.org/2000/svg">
<path d="M135 0H44V1024H135V0Z" fill="white"/>
<path d="M78.9034 0H29L29.6836 1024H77.5362C68.2391 977.455 99.1838 786.101 115.818 696.242C132.225 623.321 135.415 539.151 134.959 506.182C133.319 441.018 98.2724 252.768 80.9543 166.788C59.0788 76.8 70.4723 18.101 78.9034 0Z" fill="#E0E6E1"/>
<path d="M46.1372 0H0L0.632016 1024H44.8732C36.2778 977.455 64.8871 786.101 80.2661 696.242C95.4342 623.321 98.3841 539.151 97.9624 506.182C96.4456 441.018 64.0444 252.768 48.0333 166.788C27.8088 76.8 38.3423 18.101 46.1372 0Z" fill="#406646"/>
</svg>
